<svg width="196" height="19" viewBox="0 0 196 19" fill="none" xmlns="http://www.w3.org/2000/svg">
<path d="M8.28 15.32C7.16 15.32 6.12 15.1467 5.16 14.8C4.21333 14.44 3.38667 13.9333 2.68 13.28C1.98667 12.6267 1.44667 11.8533 1.06 10.96C0.673333 10.0667 0.48 9.08 0.48 8C0.48 6.92 0.673333 5.93333 1.06 5.04C1.44667 4.14667 1.98667 3.37333 2.68 2.72C3.38667 2.06667 4.21333 1.56667 5.16 1.22C6.12 0.86 7.16 0.68 8.28 0.68C9.65333 0.68 10.8667 0.92 11.92 1.4C12.9867 1.88 13.8667 2.57333 14.56 3.48L11.58 6.14C11.1667 5.62 10.7067 5.22 10.2 4.94C9.70667 4.64667 9.14667 4.5 8.52 4.5C8.02667 4.5 7.58 4.58 7.18 4.74C6.78 4.9 6.43333 5.13333 6.14 5.44C5.86 5.74667 5.64 6.12 5.48 6.56C5.32 6.98667 5.24 7.46667 5.24 8C5.24 8.53333 5.32 9.02 5.48 9.46C5.64 9.88667 5.86 10.2533 6.14 10.56C6.43333 10.8667 6.78 11.1 7.18 11.26C7.58 11.42 8.02667 11.5 8.52 11.5C9.14667 11.5 9.70667 11.36 10.2 11.08C10.7067 10.7867 11.1667 10.38 11.58 9.86L14.56 12.52C13.8667 13.4133 12.9867 14.1067 11.92 14.6C10.8667 15.08 9.65333 15.32 8.28 15.32ZM15.8061 15V4.06H20.3061V7.9H23.3861V4.06H27.8861V15H23.3861V11.44H20.3061V15H15.8061ZM30.0053 15V4.06H34.5053V9L38.2853 4.06H42.4453V15H37.9453V10.04L34.1853 15H30.0053ZM52.1161 15L49.1161 9.98L52.7561 7.86L57.4361 15H52.1161ZM44.5561 15V4.06H49.0761V15H44.5561ZM47.7561 11.36V7.9H51.8361V11.36H47.7561ZM53.2161 10.02L48.9761 9.62L52.4561 4.06H57.2161L53.2161 10.02ZM64.0498 15.2C62.7165 15.2 61.5498 14.9533 60.5498 14.46C59.5632 13.9667 58.7965 13.2933 58.2498 12.44C57.7032 11.5733 57.4298 10.6 57.4298 9.52C57.4298 8.41333 57.6965 7.43333 58.2298 6.58C58.7765 5.72667 59.5165 5.06 60.4498 4.58C61.3965 4.1 62.4565 3.86 63.6298 3.86C64.7098 3.86 65.7032 4.07333 66.6098 4.5C67.5298 4.92667 68.2632 5.56 68.8098 6.4C69.3698 7.24 69.6498 8.28 69.6498 9.52C69.6498 9.68 69.6432 9.86 69.6298 10.06C69.6165 10.2467 69.6032 10.42 69.5898 10.58H61.1698V8.4H67.1898L65.4898 8.98C65.4898 8.55333 65.4098 8.19333 65.2498 7.9C65.1032 7.59333 64.8965 7.36 64.6298 7.2C64.3632 7.02667 64.0432 6.94 63.6698 6.94C63.2965 6.94 62.9698 7.02667 62.6898 7.2C62.4232 7.36 62.2165 7.59333 62.0698 7.9C61.9232 8.19333 61.8498 8.55333 61.8498 8.98V9.66C61.8498 10.1267 61.9432 10.5267 62.1298 10.86C62.3165 11.1933 62.5832 11.4467 62.9298 11.62C63.2765 11.78 63.6965 11.86 64.1898 11.86C64.6965 11.86 65.1098 11.7933 65.4298 11.66C65.7632 11.5267 66.1098 11.3267 66.4698 11.06L68.8298 13.44C68.2965 14.0133 67.6365 14.4533 66.8498 14.76C66.0765 15.0533 65.1432 15.2 64.0498 15.2ZM78.5748 15.2C77.6282 15.2 76.8415 15 76.2148 14.6C75.6015 14.1867 75.1482 13.5667 74.8548 12.74C74.5615 11.9 74.4148 10.8333 74.4148 9.54C74.4148 8.22 74.5482 7.14667 74.8148 6.32C75.0948 5.48 75.5415 4.86 76.1548 4.46C76.7682 4.06 77.5748 3.86 78.5748 3.86C79.5348 3.86 80.4148 4.09333 81.2148 4.56C82.0148 5.01333 82.6548 5.66667 83.1348 6.52C83.6148 7.36 83.8548 8.36667 83.8548 9.54C83.8548 10.7133 83.6148 11.7267 83.1348 12.58C82.6548 13.42 82.0148 14.0667 81.2148 14.52C80.4148 14.9733 79.5348 15.2 78.5748 15.2ZM71.2748 18.88V4.06H75.5748V5.54L75.5948 9.54L75.7948 13.54V18.88H71.2748ZM77.4948 11.68C77.8282 11.68 78.1282 11.6 78.3948 11.44C78.6615 11.28 78.8748 11.04 79.0348 10.72C79.1948 10.4 79.2748 10.0067 79.2748 9.54C79.2748 9.06 79.1948 8.66 79.0348 8.34C78.8748 8.02 78.6615 7.78 78.3948 7.62C78.1282 7.46 77.8282 7.38 77.4948 7.38C77.1615 7.38 76.8615 7.46 76.5948 7.62C76.3282 7.78 76.1148 8.02 75.9548 8.34C75.7948 8.66 75.7148 9.06 75.7148 9.54C75.7148 10.0067 75.7948 10.4 75.9548 10.72C76.1148 11.04 76.3282 11.28 76.5948 11.44C76.8615 11.6 77.1615 11.68 77.4948 11.68ZM91.1539 10.92V7.52H97.1539V10.92H91.1539ZM105.103 15V4.06H109.883L113.363 10.88H111.483L115.423 4.06H119.663L119.703 15H115.643L115.623 8.42L116.323 8.9L113.303 14.14H111.403L108.383 8.56L109.163 8.36V15H105.103ZM128.182 15V13.06L127.862 12.54V8.86C127.862 8.32667 127.696 7.92 127.362 7.64C127.042 7.36 126.516 7.22 125.782 7.22C125.289 7.22 124.789 7.3 124.282 7.46C123.776 7.60667 123.342 7.81333 122.982 8.08L121.542 5.1C122.182 4.7 122.949 4.39333 123.842 4.18C124.736 3.96667 125.609 3.86 126.462 3.86C128.342 3.86 129.796 4.28 130.822 5.12C131.862 5.96 132.382 7.29333 132.382 9.12V15H128.182ZM125.082 15.2C124.189 15.2 123.442 15.0467 122.842 14.74C122.242 14.4333 121.789 14.0267 121.482 13.52C121.176 13 121.022 12.4267 121.022 11.8C121.022 11.0933 121.202 10.4933 121.562 10C121.922 9.50667 122.469 9.13333 123.202 8.88C123.949 8.62667 124.889 8.5 126.022 8.5H128.302V10.68H126.742C126.262 10.68 125.909 10.76 125.682 10.92C125.469 11.0667 125.362 11.2933 125.362 11.6C125.362 11.8533 125.456 12.0667 125.642 12.24C125.842 12.4 126.109 12.48 126.442 12.48C126.749 12.48 127.029 12.4 127.282 12.24C127.549 12.0667 127.742 11.8 127.862 11.44L128.442 12.78C128.269 13.5933 127.902 14.2 127.342 14.6C126.782 15 126.029 15.2 125.082 15.2ZM134.224 15V4.06H143.784V7.58H137.744L138.724 6.62V15H134.224ZM151.463 15V13.06L151.143 12.54V8.86C151.143 8.32667 150.977 7.92 150.643 7.64C150.323 7.36 149.797 7.22 149.063 7.22C148.57 7.22 148.07 7.3 147.563 7.46C147.057 7.60667 146.623 7.81333 146.263 8.08L144.823 5.1C145.463 4.7 146.23 4.39333 147.123 4.18C148.017 3.96667 148.89 3.86 149.743 3.86C151.623 3.86 153.077 4.28 154.103 5.12C155.143 5.96 155.663 7.29333 155.663 9.12V15H151.463ZM148.363 15.2C147.47 15.2 146.723 15.0467 146.123 14.74C145.523 14.4333 145.07 14.0267 144.763 13.52C144.457 13 144.303 12.4267 144.303 11.8C144.303 11.0933 144.483 10.4933 144.843 10C145.203 9.50667 145.75 9.13333 146.483 8.88C147.23 8.62667 148.17 8.5 149.303 8.5H151.583V10.68H150.023C149.543 10.68 149.19 10.76 148.963 10.92C148.75 11.0667 148.643 11.2933 148.643 11.6C148.643 11.8533 148.737 12.0667 148.923 12.24C149.123 12.4 149.39 12.48 149.723 12.48C150.03 12.48 150.31 12.4 150.563 12.24C150.83 12.0667 151.023 11.8 151.143 11.44L151.723 12.78C151.55 13.5933 151.183 14.2 150.623 14.6C150.063 15 149.31 15.2 148.363 15.2ZM161.745 15.26C160.905 15.26 160.045 15.1933 159.165 15.06C158.299 14.9267 157.452 14.7133 156.625 14.42L157.765 11.44C158.392 11.6667 159.019 11.8267 159.645 11.92C160.285 12.0133 160.945 12.06 161.625 12.06C161.932 12.06 162.199 12.0333 162.425 11.98C162.665 11.9267 162.852 11.8467 162.985 11.74C163.119 11.6333 163.185 11.4933 163.185 11.32C163.185 11.1067 163.119 10.96 162.985 10.88C162.865 10.7867 162.652 10.74 162.345 10.74H159.845V8.22H161.925C162.152 8.22 162.332 8.2 162.465 8.16C162.612 8.12 162.719 8.05333 162.785 7.96C162.852 7.86667 162.885 7.75333 162.885 7.62C162.885 7.48667 162.839 7.37333 162.745 7.28C162.665 7.18667 162.519 7.11333 162.305 7.06C162.105 7.00667 161.825 6.98 161.465 6.98C160.932 6.98 160.372 7.04 159.785 7.16C159.199 7.28 158.592 7.44667 157.965 7.66L156.945 4.8C157.692 4.50667 158.465 4.27333 159.265 4.1C160.079 3.92667 160.865 3.83333 161.625 3.82C162.692 3.80667 163.665 3.91333 164.545 4.14C165.425 4.36667 166.125 4.71333 166.645 5.18C167.165 5.64667 167.425 6.24667 167.425 6.98C167.425 7.51333 167.259 7.99333 166.925 8.42C166.605 8.84667 166.172 9.18667 165.625 9.44C165.079 9.69333 164.465 9.82 163.785 9.82L163.885 9.02C165.059 9.02 165.992 9.26 166.685 9.74C167.379 10.22 167.725 10.8667 167.725 11.68C167.725 12.4667 167.452 13.1267 166.905 13.66C166.359 14.1933 165.632 14.5933 164.725 14.86C163.832 15.1267 162.839 15.26 161.745 15.26ZM169.165 15V4.06H173.665V9L177.445 4.06H181.605V15H177.105V10.04L173.345 15H169.165ZM183.716 15V4.06H188.216V7.9H191.296V4.06H195.796V15H191.296V11.44H188.216V15H183.716Z" fill="white"/>
</svg>
